<svg width="700" height="400" viewBox="0 0 700 400" fill="none" xmlns="http://www.w3.org/2000/svg">
  <rect width="700" height="400" rx="24" fill="#18181b"/>
  <rect x="40" y="40" width="180" height="60" rx="12" fill="#23272e"/>
  <text x="130" y="75" text-anchor="middle" fill="#fff" font-size="18" font-weight="bold">Frontend (Next.js)</text>

  <rect x="260" y="40" width="180" height="60" rx="12" fill="#23272e"/>
  <text x="350" y="75" text-anchor="middle" fill="#fff" font-size="18" font-weight="bold">API Routes</text>

  <rect x="480" y="40" width="180" height="60" rx="12" fill="#23272e"/>
  <text x="570" y="75" text-anchor="middle" fill="#fff" font-size="18" font-weight="bold">Background Jobs</text>

  <rect x="260" y="160" width="180" height="60" rx="12" fill="#23272e"/>
  <text x="350" y="195" text-anchor="middle" fill="#fff" font-size="18" font-weight="bold">Analytics Engine</text>

  <rect x="40" y="280" width="180" height="60" rx="12" fill="#23272e"/>
  <text x="130" y="315" text-anchor="middle" fill="#fff" font-size="18" font-weight="bold">Database (PostgreSQL)</text>

  <rect x="480" y="280" width="180" height="60" rx="12" fill="#23272e"/>
  <text x="570" y="315" text-anchor="middle" fill="#fff" font-size="18" font-weight="bold">Xandeum Network</text>

  <!-- Arrows -->
  <line x1="220" y1="70" x2="260" y2="70" stroke="#4f46e5" stroke-width="3" marker-end="url(#arrow)"/>
  <line x1="440" y1="70" x2="480" y2="70" stroke="#4f46e5" stroke-width="3" marker-end="url(#arrow)"/>
  <line x1="350" y1="100" x2="350" y2="160" stroke="#4f46e5" stroke-width="3" marker-end="url(#arrow)"/>
  <line x1="350" y1="220" x2="130" y2="280" stroke="#4f46e5" stroke-width="3" marker-end="url(#arrow)"/>
  <line x1="350" y1="220" x2="570" y2="280" stroke="#4f46e5" stroke-width="3" marker-end="url(#arrow)"/>
  <line x1="570" y1="100" x2="570" y2="280" stroke="#4f46e5" stroke-width="3" marker-end="url(#arrow)"/>

  <defs>
    <marker id="arrow" markerWidth="10" markerHeight="10" refX="10" refY="5" orient="auto" markerUnits="strokeWidth">
      <path d="M0,0 L10,5 L0,10 Z" fill="#4f46e5" />
    </marker>
  </defs>
</svg>
